<?xml version="1.0" encoding="UTF-8"?>
<!DOCTYPE svg PUBLIC "-//W3C//DTD SVG 1.1//EN" "http://www.w3.org/Graphics/SVG/1.1/DTD/svg11.dtd">
<svg xmlns="http://www.w3.org/2000/svg" version="1.1" width="64px" height="50px" style="shape-rendering:geometricPrecision; text-rendering:geometricPrecision; image-rendering:optimizeQuality; fill-rule:evenodd; clip-rule:evenodd" xmlns:xlink="http://www.w3.org/1999/xlink">
<g><path style="opacity:0.945" fill="#8F19E7" d="M 28.5,-0.5 C 30.5,-0.5 32.5,-0.5 34.5,-0.5C 34.8333,0.166667 35.1667,0.833333 35.5,1.5C 33.1667,1.5 30.8333,1.5 28.5,1.5C 28.5,0.833333 28.5,0.166667 28.5,-0.5 Z"/></g>
<g><path style="opacity:0.984" fill="#8F19E7" d="M 25.5,0.5 C 25.5,0.166667 25.5,-0.166667 25.5,-0.5C 26.5,-0.5 27.5,-0.5 28.5,-0.5C 28.5,0.166667 28.5,0.833333 28.5,1.5C 28.1667,1.5 27.8333,1.5 27.5,1.5C 27.1583,0.661754 26.4916,0.32842 25.5,0.5 Z"/></g>
<g><path style="opacity:1" fill="#8F19E7" d="M 34.5,-0.5 C 35.8333,-0.5 37.1667,-0.5 38.5,-0.5C 39.1667,0.166667 39.8333,0.833333 40.5,1.5C 39.5084,1.32842 38.8417,1.66175 38.5,2.5C 37.5084,2.32842 36.8417,2.66175 36.5,3.5C 36.1667,3.5 35.8333,3.5 35.5,3.5C 35.5,2.83333 35.5,2.16667 35.5,1.5C 35.1667,0.833333 34.8333,0.166667 34.5,-0.5 Z"/></g>
<g><path style="opacity:1" fill="#8F19E7" d="M 23.5,0.5 C 23.5,1.16667 23.5,1.83333 23.5,2.5C 23.5,2.83333 23.5,3.16667 23.5,3.5C 22.8333,3.5 22.1667,3.5 21.5,3.5C 20.5084,3.67158 19.8417,3.33825 19.5,2.5C 20.5137,1.32627 21.847,0.659599 23.5,0.5 Z"/></g>
<g><path style="opacity:1" fill="#8F19E7" d="M 23.5,0.5 C 24.1667,0.5 24.8333,0.5 25.5,0.5C 26.4916,0.32842 27.1583,0.661754 27.5,1.5C 26.5084,1.32842 25.8417,1.66175 25.5,2.5C 24.8333,2.5 24.1667,2.5 23.5,2.5C 23.5,1.83333 23.5,1.16667 23.5,0.5 Z"/></g>
<g><path style="opacity:0.012" fill="#8F19E7" d="M 25.5,2.5 C 25.8417,1.66175 26.5084,1.32842 27.5,1.5C 27.8333,1.5 28.1667,1.5 28.5,1.5C 28.5,1.83333 28.5,2.16667 28.5,2.5C 28.5,2.83333 28.5,3.16667 28.5,3.5C 28.1667,3.5 27.8333,3.5 27.5,3.5C 27.1583,2.66175 26.4916,2.32842 25.5,2.5 Z"/></g>
<g><path style="opacity:1" fill="#8F19E7" d="M 38.5,2.5 C 38.8417,1.66175 39.5084,1.32842 40.5,1.5C 41.1667,1.5 41.8333,1.5 42.5,1.5C 42.6716,2.49162 42.3382,3.15829 41.5,3.5C 40.8333,3.5 40.1667,3.5 39.5,3.5C 39.5,2.83333 39.1667,2.5 38.5,2.5 Z"/></g>
<g><path style="opacity:0.551" fill="#8F19E7" d="M 28.5,2.5 C 29.8333,2.5 31.1667,2.5 32.5,2.5C 32.5,3.16667 32.5,3.83333 32.5,4.5C 32.1667,4.5 31.8333,4.5 31.5,4.5C 30.6043,3.49367 29.9377,3.49367 29.5,4.5C 29.1667,4.5 28.8333,4.5 28.5,4.5C 28.5,4.16667 28.5,3.83333 28.5,3.5C 28.5,3.16667 28.5,2.83333 28.5,2.5 Z"/></g>
<g><path style="opacity:0.231" fill="#8F19E7" d="M 32.5,2.5 C 33.4916,2.32842 34.1583,2.66175 34.5,3.5C 34.5,4.5 34.5,5.5 34.5,6.5C 33.8333,6.5 33.1667,6.5 32.5,6.5C 32.5,5.83333 32.5,5.16667 32.5,4.5C 32.5,3.83333 32.5,3.16667 32.5,2.5 Z"/></g>
<g><path style="opacity:0.996" fill="#8F19E7" d="M 19.5,2.5 C 19.8417,3.33825 20.5084,3.67158 21.5,3.5C 21.5,3.83333 21.5,4.16667 21.5,4.5C 20.8333,4.5 20.1667,4.5 19.5,4.5C 18.8333,4.5 18.5,4.16667 18.5,3.5C 18.5,2.83333 18.8333,2.5 19.5,2.5 Z"/></g>
<g><path style="opacity:0.992" fill="#8F19E7" d="M 42.5,1.5 C 43.8717,2.51163 45.205,3.51163 46.5,4.5C 45.5,4.5 44.5,4.5 43.5,4.5C 42.8333,4.5 42.1667,4.5 41.5,4.5C 41.5,4.16667 41.5,3.83333 41.5,3.5C 42.3382,3.15829 42.6716,2.49162 42.5,1.5 Z"/></g>
<g><path style="opacity:0.937" fill="#21252a" d="M 18.5,3.5 C 18.5,4.16667 18.8333,4.5 19.5,4.5C 19.5,4.83333 19.5,5.16667 19.5,5.5C 18.5084,5.32842 17.8417,5.66175 17.5,6.5C 17.1667,6.5 16.8333,6.5 16.5,6.5C 16.5,5.83333 16.5,5.16667 16.5,4.5C 16.8417,3.66175 17.5084,3.32842 18.5,3.5 Z"/></g>
<g><path style="opacity:0.808" fill="#8F19E7" d="M 23.5,3.5 C 24.5,3.5 25.5,3.5 26.5,3.5C 25.7659,4.70792 25.4326,6.04125 25.5,7.5C 24.8333,7.16667 24.1667,6.83333 23.5,6.5C 23.1583,5.66175 22.4916,5.32842 21.5,5.5C 21.5,5.16667 21.5,4.83333 21.5,4.5C 22.4916,4.67158 23.1583,4.33825 23.5,3.5 Z"/></g>
<g><path style="opacity:0.69" fill="#8F19E7" d="M 26.5,3.5 C 26.8333,3.5 27.1667,3.5 27.5,3.5C 27.8333,3.5 28.1667,3.5 28.5,3.5C 28.5,3.83333 28.5,4.16667 28.5,4.5C 28.5,5.5 28.5,6.5 28.5,7.5C 28.1667,7.5 27.8333,7.5 27.5,7.5C 27.1667,7.5 26.8333,7.5 26.5,7.5C 26.1667,7.5 25.8333,7.5 25.5,7.5C 25.4326,6.04125 25.7659,4.70792 26.5,3.5 Z"/></g>
<g><path style="opacity:0.941" fill="#8F19E7" d="M 31.5,4.5 C 31.1667,5.16667 30.8333,5.83333 30.5,6.5C 30.1667,6.5 29.8333,6.5 29.5,6.5C 29.5,5.83333 29.5,5.16667 29.5,4.5C 29.9377,3.49367 30.6043,3.49367 31.5,4.5 Z"/></g>
<g><path style="opacity:0.608" fill="#8F19E7" d="M 34.5,3.5 C 34.8333,3.5 35.1667,3.5 35.5,3.5C 38.0983,4.47215 38.0983,5.47215 35.5,6.5C 35.1667,6.5 34.8333,6.5 34.5,6.5C 34.5,5.5 34.5,4.5 34.5,3.5 Z"/></g>
<g><path style="opacity:0.961" fill="#8F19E7" d="M 16.5,4.5 C 16.5,5.16667 16.5,5.83333 16.5,6.5C 16.5,7.16667 16.1667,7.5 15.5,7.5C 15.1583,6.66175 14.4916,6.32842 13.5,6.5C 14.2905,5.59872 15.2905,4.93205 16.5,4.5 Z"/></g>
<g><path style="opacity:0.255" fill="#8F19E7" d="M 31.5,4.5 C 31.8333,4.5 32.1667,4.5 32.5,4.5C 32.5,5.16667 32.5,5.83333 32.5,6.5C 32.1667,6.5 31.8333,6.5 31.5,6.5C 31.1667,6.5 30.8333,6.5 30.5,6.5C 30.8333,5.83333 31.1667,5.16667 31.5,4.5 Z"/></g>
<g><path style="opacity:0.608" fill="#8F19E7" d="M 40.5,4.5 C 40.8333,4.5 41.1667,4.5 41.5,4.5C 41.5,5.16667 41.8333,5.5 42.5,5.5C 42.5,6.16667 42.5,6.83333 42.5,7.5C 42.1667,7.5 41.8333,7.5 41.5,7.5C 41.5,6.83333 41.1667,6.5 40.5,6.5C 40.5,5.83333 40.5,5.16667 40.5,4.5 Z"/></g>
<g><path style="opacity:0.945" fill="#8F19E7" d="M 43.5,5.5 C 43.5,5.16667 43.5,4.83333 43.5,4.5C 44.5,4.5 45.5,4.5 46.5,4.5C 47.5,4.83333 48.1667,5.5 48.5,6.5C 47.8333,6.5 47.5,6.83333 47.5,7.5C 46.609,6.89022 45.609,6.55688 44.5,6.5C 44.5,5.83333 44.1667,5.5 43.5,5.5 Z"/></g>
<g><path style="opacity:0.937" fill="#8F19E7" d="M 13.5,6.5 C 14.4916,6.32842 15.1583,6.66175 15.5,7.5C 15.5,8.16667 15.1667,8.5 14.5,8.5C 13.8333,8.5 13.5,8.16667 13.5,7.5C 13.5,7.16667 13.5,6.83333 13.5,6.5 Z"/></g>
<g><path style="opacity:0.757" fill="#8F19E7" d="M 21.5,5.5 C 22.4916,5.32842 23.1583,5.66175 23.5,6.5C 22.1667,6.5 21.5,7.16667 21.5,8.5C 21.1667,8.5 20.8333,8.5 20.5,8.5C 20.5,8.16667 20.5,7.83333 20.5,7.5C 20.3284,6.50838 20.6618,5.84171 21.5,5.5 Z"/></g>
<g><path style="opacity:0.463" fill="#8F19E7" d="M 31.5,6.5 C 31.8333,6.5 32.1667,6.5 32.5,6.5C 33.1667,6.5 33.8333,6.5 34.5,6.5C 34.8333,6.5 35.1667,6.5 35.5,6.5C 35.5,6.83333 35.5,7.16667 35.5,7.5C 34.8333,7.5 34.5,7.83333 34.5,8.5C 34.1667,8.5 33.8333,8.5 33.5,8.5C 32.8333,7.83333 32.1667,7.16667 31.5,6.5 Z"/></g>
<g><path style="opacity:0.965" fill="#8F19E7" d="M 35.5,3.5 C 35.8333,3.5 36.1667,3.5 36.5,3.5C 37.1667,3.5 37.8333,3.5 38.5,3.5C 38.5,4.5 38.5,5.5 38.5,6.5C 38.5,7.16667 38.5,7.83333 38.5,8.5C 37.609,7.89022 36.609,7.55688 35.5,7.5C 35.5,7.16667 35.5,6.83333 35.5,6.5C 38.0983,5.47215 38.0983,4.47215 35.5,3.5 Z"/></g>
<g><path style="opacity:0.294" fill="#8F19E7" d="M 42.5,5.5 C 42.8333,5.5 43.1667,5.5 43.5,5.5C 44.1667,5.5 44.5,5.83333 44.5,6.5C 44.6716,7.49162 44.3382,8.15829 43.5,8.5C 43.5,7.83333 43.1667,7.5 42.5,7.5C 42.5,6.83333 42.5,6.16667 42.5,5.5 Z"/></g>
<g><path style="opacity:0.714" fill="#181e24" d="M 48.5,6.5 C 49.5,6.83333 50.1667,7.5 50.5,8.5C 50.5,9.16667 50.5,9.83333 50.5,10.5C 49.1667,9.83333 48.1667,8.83333 47.5,7.5C 47.5,6.83333 47.8333,6.5 48.5,6.5 Z"/></g>
<g><path style="opacity:0.675" fill="#8F19E7" d="M 23.5,6.5 C 24.1667,6.83333 24.8333,7.16667 25.5,7.5C 25.5,8.16667 25.1667,8.5 24.5,8.5C 24.1667,8.5 23.8333,8.5 23.5,8.5C 23.5,7.83333 23.5,7.16667 23.5,6.5 Z"/></g>
<g><path style="opacity:0.498" fill="#8F19E7" d="M 29.5,6.5 C 29.8333,6.5 30.1667,6.5 30.5,6.5C 30.8333,6.5 31.1667,6.5 31.5,6.5C 32.1667,7.16667 32.8333,7.83333 33.5,8.5C 33.1667,8.5 32.8333,8.5 32.5,8.5C 31.209,8.73731 30.209,8.40397 29.5,7.5C 29.5,7.16667 29.5,6.83333 29.5,6.5 Z"/></g>
<g><path style="opacity:0.957" fill="#8F19E7" d="M 38.5,3.5 C 38.8333,3.5 39.1667,3.5 39.5,3.5C 39.5,4.16667 39.8333,4.5 40.5,4.5C 40.5,5.16667 40.5,5.83333 40.5,6.5C 40.5,7.5 40.5,8.5 40.5,9.5C 40.1667,9.5 39.8333,9.5 39.5,9.5C 39.7373,8.20895 39.404,7.20895 38.5,6.5C 38.5,5.5 38.5,4.5 38.5,3.5 Z"/></g>
<g><path style="opacity:0.918" fill="#8F19E7" d="M 13.5,7.5 C 13.5,8.16667 13.8333,8.5 14.5,8.5C 14.5,9.16667 14.1667,9.5 13.5,9.5C 12.8333,9.5 12.5,9.16667 12.5,8.5C 12.5,7.83333 12.8333,7.5 13.5,7.5 Z"/></g>
<g><path style="opacity:0.514" fill="#8F19E7" d="M 17.5,6.5 C 17.8417,5.66175 18.5084,5.32842 19.5,5.5C 19.3284,6.49162 19.6618,7.15829 20.5,7.5C 20.5,7.83333 20.5,8.16667 20.5,8.5C 20.5,9.16667 20.1667,9.5 19.5,9.5C 18.8333,8.5 18.1667,7.5 17.5,6.5 Z"/></g>
<g><path style="opacity:0.322" fill="#8F19E7" d="M 23.5,6.5 C 23.5,7.16667 23.5,7.83333 23.5,8.5C 23.5,8.83333 23.5,9.16667 23.5,9.5C 23.5,10.1667 23.1667,10.5 22.5,10.5C 22.5,9.83333 22.1667,9.5 21.5,9.5C 21.5,9.16667 21.5,8.83333 21.5,8.5C 21.5,7.16667 22.1667,6.5 23.5,6.5 Z"/></g>
<g><path style="opacity:0.451" fill="#8F19E7" d="M 25.5,7.5 C 25.8333,7.5 26.1667,7.5 26.5,7.5C 26.5,7.83333 26.5,8.16667 26.5,8.5C 26.1583,9.33825 25.4916,9.67158 24.5,9.5C 24.5,9.16667 24.5,8.83333 24.5,8.5C 25.1667,8.5 25.5,8.16667 25.5,7.5 Z"/></g>
<g><path style="opacity:1" fill="#8F19E7" d="M 27.5,7.5 C 27.8333,7.5 28.1667,7.5 28.5,7.5C 28.8333,7.5 29.1667,7.5 29.5,7.5C 30.209,8.40397 31.209,8.73731 32.5,8.5C 32.8333,9.16667 33.1667,9.83333 33.5,10.5C 31.5,10.5 29.5,10.5 27.5,10.5C 27.5,9.83333 27.5,9.16667 27.5,8.5C 27.5,8.16667 27.5,7.83333 27.5,7.5 Z"/></g>
<g><path style="opacity:1" fill="#8F19E7" d="M 32.5,8.5 C 32.8333,8.5 33.1667,8.5 33.5,8.5C 33.8333,8.5 34.1667,8.5 34.5,8.5C 35.8333,8.83333 37.1667,9.16667 38.5,9.5C 38.5,10.1667 38.1667,10.5 37.5,10.5C 36.1667,10.5 34.8333,10.5 33.5,10.5C 33.1667,9.83333 32.8333,9.16667 32.5,8.5 Z"/></g>
<g><path style="opacity:0.565" fill="#8F19E7" d="M 34.5,8.5 C 34.5,7.83333 34.8333,7.5 35.5,7.5C 36.609,7.55688 37.609,7.89022 38.5,8.5C 38.5,8.83333 38.5,9.16667 38.5,9.5C 37.1667,9.16667 35.8333,8.83333 34.5,8.5 Z"/></g>
<g><path style="opacity:0.192" fill="#8F19E7" d="M 41.5,7.5 C 41.8333,7.5 42.1667,7.5 42.5,7.5C 43.1667,7.5 43.5,7.83333 43.5,8.5C 43.5,9.83333 42.8333,10.5 41.5,10.5C 41.5,9.5 41.5,8.5 41.5,7.5 Z"/></g>
<g><path style="opacity:0.89" fill="#8F19E7" d="M 12.5,8.5 C 12.5,9.16667 12.8333,9.5 13.5,9.5C 12.2485,11.0009 11.2485,12.6675 10.5,14.5C 9.66175,14.1583 9.32842,13.4916 9.5,12.5C 10.0256,10.7697 11.0256,9.43634 12.5,8.5 Z"/></g>
<g><path style="opacity:0.459" fill="#8F19E7" d="M 20.5,8.5 C 20.8333,8.5 21.1667,8.5 21.5,8.5C 21.5,8.83333 21.5,9.16667 21.5,9.5C 21.5,9.83333 21.5,10.1667 21.5,10.5C 20.5084,10.6716 19.8417,10.3382 19.5,9.5C 20.1667,9.5 20.5,9.16667 20.5,8.5 Z"/></g>
<g><path style="opacity:0.973" fill="#8F19E7" d="M 26.5,8.5 C 26.8333,8.5 27.1667,8.5 27.5,8.5C 27.5,9.16667 27.5,9.83333 27.5,10.5C 26.8333,10.5 26.1667,10.5 25.5,10.5C 24.8333,10.5 24.5,10.1667 24.5,9.5C 25.4916,9.67158 26.1583,9.33825 26.5,8.5 Z"/></g>
<g><path style="opacity:0.961" fill="#8F19E7" d="M 23.5,9.5 C 23.8333,9.5 24.1667,9.5 24.5,9.5C 24.5,10.1667 24.8333,10.5 25.5,10.5C 25.1667,11.5 24.5,12.1667 23.5,12.5C 23.1667,11.8333 22.8333,11.1667 22.5,10.5C 23.1667,10.5 23.5,10.1667 23.5,9.5 Z"/></g>
<g><path style="opacity:0.875" fill="#8F19E7" d="M 38.5,9.5 C 38.8333,9.5 39.1667,9.5 39.5,9.5C 39.8333,9.5 40.1667,9.5 40.5,9.5C 40.5,9.83333 40.5,10.1667 40.5,10.5C 39.8333,10.5 39.5,10.8333 39.5,11.5C 38.5084,11.6716 37.8417,11.3382 37.5,10.5C 38.1667,10.5 38.5,10.1667 38.5,9.5 Z"/></g>
<g><path style="opacity:0.922" fill="#8F19E7" d="M 50.5,8.5 C 51.9063,8.97306 52.573,9.97306 52.5,11.5C 52.5,12.1667 52.1667,12.5 51.5,12.5C 50.6618,12.1583 50.3284,11.4916 50.5,10.5C 50.5,9.83333 50.5,9.16667 50.5,8.5 Z"/></g>
<g><path style="opacity:0.98" fill="#8F19E7" d="M 21.5,10.5 C 21.8333,10.5 22.1667,10.5 22.5,10.5C 22.8333,11.1667 23.1667,11.8333 23.5,12.5C 22.8333,12.8333 22.1667,13.1667 21.5,13.5C 21.5,12.8333 21.1667,12.5 20.5,12.5C 20.8333,11.8333 21.1667,11.1667 21.5,10.5 Z"/></g>
<g><path style="opacity:0.471" fill="#8F19E7" d="M 40.5,10.5 C 40.8333,10.5 41.1667,10.5 41.5,10.5C 42.1667,11.5 42.8333,12.5 43.5,13.5C 43.5,14.1667 43.5,14.8333 43.5,15.5C 41.8333,14.5 40.5,13.1667 39.5,11.5C 39.5,10.8333 39.8333,10.5 40.5,10.5 Z"/></g>
<g><path style="opacity:0.929" fill="#8F19E7" d="M 52.5,11.5 C 53.5,11.8333 54.1667,12.5 54.5,13.5C 53.8333,13.5 53.1667,13.5 52.5,13.5C 51.8333,13.5 51.5,13.1667 51.5,12.5C 52.1667,12.5 52.5,12.1667 52.5,11.5 Z"/></g>
<g><path style="opacity:0.749" fill="#8F19E7" d="M 9.5,12.5 C 9.32842,13.4916 9.66175,14.1583 10.5,14.5C 10.5,15.1667 10.1667,15.5 9.5,15.5C 8.83333,15.5 8.16667,15.5 7.5,15.5C 7.93205,14.2905 8.59872,13.2905 9.5,12.5 Z"/></g>
<g><path style="opacity:0.941" fill="#8F19E7" d="M 20.5,12.5 C 21.1667,12.5 21.5,12.8333 21.5,13.5C 21.1667,14.1667 20.8333,14.8333 20.5,15.5C 20.1667,15.5 19.8333,15.5 19.5,15.5C 19.5,14.8333 19.5,14.1667 19.5,13.5C 19.5,12.8333 19.8333,12.5 20.5,12.5 Z"/></g>
<g><path style="opacity:0.486" fill="#8F19E7" d="M 52.5,13.5 C 53.1667,13.5 53.8333,13.5 54.5,13.5C 54.5,13.8333 54.5,14.1667 54.5,14.5C 53.8333,14.8333 53.1667,15.1667 52.5,15.5C 52.5,14.8333 52.5,14.1667 52.5,13.5 Z"/></g>
<g><path style="opacity:0.976" fill="#8F19E7" d="M 19.5,13.5 C 19.5,14.1667 19.5,14.8333 19.5,15.5C 18.8333,15.5 18.1667,15.5 17.5,15.5C 17.8333,14.5 18.5,13.8333 19.5,13.5 Z"/></g>
<g><path style="opacity:0.941" fill="#8F19E7" d="M 43.5,13.5 C 44.5,13.8333 45.1667,14.5 45.5,15.5C 44.8333,15.5 44.5,15.8333 44.5,16.5C 43.8333,16.5 43.5,16.1667 43.5,15.5C 43.5,14.8333 43.5,14.1667 43.5,13.5 Z"/></g>
<g><path style="opacity:0.741" fill="#8F19E7" d="M 54.5,14.5 C 55.1098,15.391 55.4431,16.391 55.5,17.5C 54.8333,17.5 54.1667,17.5 53.5,17.5C 52.6618,17.1583 52.3284,16.4916 52.5,15.5C 53.1667,15.1667 53.8333,14.8333 54.5,14.5 Z"/></g>
<g><path style="opacity:0.314" fill="#8F19E7" d="M 7.5,15.5 C 8.16667,15.5 8.83333,15.5 9.5,15.5C 9.67158,16.4916 9.33825,17.1583 8.5,17.5C 8.16667,17.5 7.83333,17.5 7.5,17.5C 7.5,16.8333 7.5,16.1667 7.5,15.5 Z"/></g>
<g><path style="opacity:0.953" fill="#8F19E7" d="M 17.5,15.5 C 18.1667,15.5 18.8333,15.5 19.5,15.5C 19.8333,15.5 20.1667,15.5 20.5,15.5C 20.1667,16.5 19.5,17.1667 18.5,17.5C 17.8333,17.5 17.5,17.1667 17.5,16.5C 17.5,16.1667 17.5,15.8333 17.5,15.5 Z"/></g>
<g><path style="opacity:0.882" fill="#8F19E7" d="M 45.5,15.5 C 45.8333,16.1667 46.1667,16.8333 46.5,17.5C 45.8333,17.5 45.5,17.8333 45.5,18.5C 44.6618,18.1583 44.3284,17.4916 44.5,16.5C 44.5,15.8333 44.8333,15.5 45.5,15.5 Z"/></g>
<g><path style="opacity:0.722" fill="#8F19E7" d="M 17.5,16.5 C 17.5,17.1667 17.8333,17.5 18.5,17.5C 18.4431,18.609 18.1098,19.609 17.5,20.5C 16.8333,20.5 16.5,20.1667 16.5,19.5C 16.2627,18.209 16.596,17.209 17.5,16.5 Z"/></g>
<g><path style="opacity:0.855" fill="#8F19E7" d="M 7.5,17.5 C 7.83333,17.5 8.16667,17.5 8.5,17.5C 7.9492,20.8067 7.61587,24.1401 7.5,27.5C 7.16667,27.5 6.83333,27.5 6.5,27.5C 6.25293,24.0613 6.58627,20.728 7.5,17.5 Z"/></g>
<g><path style="opacity:0.933" fill="#8F19E7" d="M 46.5,17.5 C 46.8333,18.1667 47.1667,18.8333 47.5,19.5C 46.8333,19.5 46.1667,19.5 45.5,19.5C 45.5,19.1667 45.5,18.8333 45.5,18.5C 45.5,17.8333 45.8333,17.5 46.5,17.5 Z"/></g>
<g><path style="opacity:0.475" fill="#8F19E7" d="M 45.5,19.5 C 46.1667,19.5 46.8333,19.5 47.5,19.5C 47.5,19.8333 47.5,20.1667 47.5,20.5C 46.8333,20.5 46.5,20.8333 46.5,21.5C 45.6618,21.1583 45.3284,20.4916 45.5,19.5 Z"/></g>
<g><path style="opacity:0.663" fill="#8F19E7" d="M 16.5,19.5 C 16.5,20.1667 16.8333,20.5 17.5,20.5C 16.6586,22.3792 16.3253,24.3792 16.5,26.5C 16.1667,26.5 15.8333,26.5 15.5,26.5C 15.1984,23.9407 15.5318,21.6074 16.5,19.5 Z"/></g>
<g><path style="opacity:0.757" fill="#8F19E7" d="M 34.5,22.5 C 34.5,22.1667 34.5,21.8333 34.5,21.5C 35.209,20.596 36.209,20.2627 37.5,20.5C 37.6495,21.552 37.4828,22.552 37,23.5C 36.3292,22.7476 35.4959,22.4142 34.5,22.5 Z"/></g>
<g><path style="opacity:0.416" fill="#8F19E7" d="M 53.5,17.5 C 54.1667,17.5 54.8333,17.5 55.5,17.5C 56.4345,18.5676 56.7678,19.901 56.5,21.5C 55.8333,21.5 55.5,21.8333 55.5,22.5C 54.6908,20.9724 54.0241,19.3057 53.5,17.5 Z"/></g>
<g><path style="opacity:0.714" fill="#8F19E7" d="M 20.5,22.5 C 20.8417,21.6618 21.5084,21.3284 22.5,21.5C 23.1667,21.5 23.5,21.8333 23.5,22.5C 23.5,22.8333 23.5,23.1667 23.5,23.5C 23.1667,23.5 22.8333,23.5 22.5,23.5C 22.5,22.8333 22.1667,22.5 21.5,22.5C 21.1667,22.5 20.8333,22.5 20.5,22.5 Z"/></g>
<g><path style="opacity:0.255" fill="#8F19E7" d="M 22.5,21.5 C 21.5084,21.3284 20.8417,21.6618 20.5,22.5C 20.5,22.8333 20.5,23.1667 20.5,23.5C 20.1667,23.5 19.8333,23.5 19.5,23.5C 19.1667,23.5 18.8333,23.5 18.5,23.5C 19.2257,20.9873 20.5591,20.3207 22.5,21.5 Z"/></g>
<g><path style="opacity:0.298" fill="#8F19E7" d="M 10.5,23.5 C 12.4646,23.9483 12.7979,24.9483 11.5,26.5C 10.6143,25.675 10.281,24.675 10.5,23.5 Z"/></g>
<g><path style="opacity:0.769" fill="#8F19E7" d="M 23.5,23.5 C 23.5,23.1667 23.5,22.8333 23.5,22.5C 25.1788,22.2852 26.1788,22.9519 26.5,24.5C 25.8333,24.8333 25.1667,25.1667 24.5,25.5C 24.6716,24.5084 24.3382,23.8417 23.5,23.5 Z"/></g>
<g><path style="opacity:0.882" fill="#8F19E7" d="M 33.5,23.5 C 33.1667,24.1667 32.8333,24.8333 32.5,25.5C 31.8333,25.1667 31.1667,24.8333 30.5,24.5C 30.1667,24.5 29.8333,24.5 29.5,24.5C 29.3691,23.6236 29.7025,22.9569 30.5,22.5C 31.4168,23.1272 32.4168,23.4606 33.5,23.5 Z"/></g>
<g><path style="opacity:0.739" fill="#8F19E7" d="M 44.5,25.5 C 43.5,25.1667 42.8333,24.5 42.5,23.5C 44.2027,22.3398 44.8693,23.0065 44.5,25.5 Z"/></g>
<g><path style="opacity:0.192" fill="#8F19E7" d="M 50.5,24.5 C 51.6226,23.2426 52.2893,23.5759 52.5,25.5C 51.8333,25.1667 51.1667,24.8333 50.5,24.5 Z"/></g>
<g><path style="opacity:0.027" fill="#8F19E7" d="M 21.5,23.5 C 21.8333,23.5 22.1667,23.5 22.5,23.5C 22.8333,23.5 23.1667,23.5 23.5,23.5C 23.5,23.8333 23.5,24.1667 23.5,24.5C 22.8333,24.5 22.5,24.8333 22.5,25.5C 22.1667,25.5 21.8333,25.5 21.5,25.5C 21.5,24.8333 21.5,24.1667 21.5,23.5 Z"/></g>
<g><path style="opacity:0.506" fill="#8F19E7" d="M 29.5,24.5 C 29.5,24.8333 29.5,25.1667 29.5,25.5C 29.1667,25.5 28.8333,25.5 28.5,25.5C 28.1667,25.5 27.8333,25.5 27.5,25.5C 26.8333,25.5 26.5,25.1667 26.5,24.5C 27.2216,24.0825 27.7216,23.4158 28,22.5C 28.2784,23.4158 28.7784,24.0825 29.5,24.5 Z"/></g>
<g><path style="opacity:0.502" fill="#8F19E7" d="M 34.5,21.5 C 34.5,21.8333 34.5,22.1667 34.5,22.5C 34.5,23.5 34.5,24.5 34.5,25.5C 33.8333,25.5 33.5,25.8333 33.5,26.5C 33.1667,26.5 32.8333,26.5 32.5,26.5C 32.5,26.1667 32.5,25.8333 32.5,25.5C 32.8333,24.8333 33.1667,24.1667 33.5,23.5C 33.3284,22.5084 33.6618,21.8417 34.5,21.5 Z"/></g>
<g><path style="opacity:0.863" fill="#8F19E7" d="M 40.5,25.5 C 40.5,25.8333 40.5,26.1667 40.5,26.5C 39.8333,26.5 39.1667,26.5 38.5,26.5C 38.238,25.0222 38.5713,23.6888 39.5,22.5C 40.3857,23.325 40.719,24.325 40.5,25.5 Z"/></g>
<g><path style="opacity:0.976" fill="#8F19E7" d="M 42.5,23.5 C 42.8333,24.5 43.5,25.1667 44.5,25.5C 44.7535,27.4008 44.4202,28.0674 43.5,27.5C 42.8333,26.8333 42.1667,26.1667 41.5,25.5C 41.2465,23.5992 41.5798,22.9326 42.5,23.5 Z"/></g>
<g><path style="opacity:1" fill="#8F19E7" d="M 50.5,24.5 C 51.1667,24.8333 51.8333,25.1667 52.5,25.5C 51.5029,26.7125 50.5029,26.5458 49.5,25C 49.7284,24.6012 50.0618,24.4346 50.5,24.5 Z"/></g>
<g><path style="opacity:0.757" fill="#8F19E7" d="M 23.5,23.5 C 24.3382,23.8417 24.6716,24.5084 24.5,25.5C 24.5,25.8333 24.5,26.1667 24.5,26.5C 23.8333,26.5 23.1667,26.5 22.5,26.5C 22.5,26.1667 22.5,25.8333 22.5,25.5C 23.1667,25.5 23.5,25.1667 23.5,24.5C 23.5,24.1667 23.5,23.8333 23.5,23.5 Z"/></g>
<g><path style="opacity:0.914" fill="#8F19E7" d="M 26.5,24.5 C 26.5,25.1667 26.8333,25.5 27.5,25.5C 27.5,25.8333 27.5,26.1667 27.5,26.5C 26.8333,26.5 26.5,26.8333 26.5,27.5C 25.8333,27.1667 25.1667,26.8333 24.5,26.5C 24.5,26.1667 24.5,25.8333 24.5,25.5C 25.1667,25.1667 25.8333,24.8333 26.5,24.5 Z"/></g>
<g><path style="opacity:0.067" fill="#8F19E7" d="M 30.5,24.5 C 31.1667,24.8333 31.8333,25.1667 32.5,25.5C 32.5,25.8333 32.5,26.1667 32.5,26.5C 30.7973,27.6602 30.1307,26.9935 30.5,24.5 Z"/></g>
<g><path style="opacity:0.9" fill="#8F19E7" d="M 15.5,26.5 C 15.8333,26.5 16.1667,26.5 16.5,26.5C 16.8333,27.1667 17.1667,27.8333 17.5,28.5C 16.8333,28.5 16.1667,28.5 15.5,28.5C 15.5,27.8333 15.5,27.1667 15.5,26.5 Z"/></g>
<g><path style="opacity:0.576" fill="#171c22" d="M 22.5,26.5 C 23.1667,26.5 23.8333,26.5 24.5,26.5C 24.5,27.1667 24.5,27.8333 24.5,28.5C 24.1667,28.5 23.8333,28.5 23.5,28.5C 23.1667,27.8333 22.8333,27.1667 22.5,26.5 Z"/></g>
<g><path style="opacity:0.431" fill="#8F19E7" d="M 28.5,25.5 C 28.8333,25.5 29.1667,25.5 29.5,25.5C 29.6716,26.4916 29.3382,27.1583 28.5,27.5C 27.8333,27.8333 27.1667,28.1667 26.5,28.5C 26.5,28.1667 26.5,27.8333 26.5,27.5C 26.5,26.8333 26.8333,26.5 27.5,26.5C 28.1667,26.5 28.5,26.1667 28.5,25.5 Z"/></g>
<g><path style="opacity:0.667" fill="#8F19E7" d="M 34.5,25.5 C 34.5,26.1667 34.8333,26.5 35.5,26.5C 35.8333,27.1667 36.1667,27.8333 36.5,28.5C 35.209,28.7373 34.209,28.404 33.5,27.5C 33.5,27.1667 33.5,26.8333 33.5,26.5C 33.5,25.8333 33.8333,25.5 34.5,25.5 Z"/></g>
<g><path style="opacity:0.875" fill="#8F19E7" d="M 37.5,26.5 C 37.5,27.1667 37.5,27.8333 37.5,28.5C 37.1667,28.5 36.8333,28.5 36.5,28.5C 36.1667,27.8333 35.8333,27.1667 35.5,26.5C 36.3957,25.4937 37.0623,25.4937 37.5,26.5 Z"/></g>
<g><path style="opacity:0.737" fill="#8F19E7" d="M 37.5,26.5 C 37.8333,26.5 38.1667,26.5 38.5,26.5C 39.1667,26.5 39.8333,26.5 40.5,26.5C 40.8417,27.3382 41.5084,27.6716 42.5,27.5C 41.0813,28.4511 39.4147,28.7845 37.5,28.5C 37.5,27.8333 37.5,27.1667 37.5,26.5 Z"/></g>
<g><path style="opacity:0.698" fill="#8F19E7" d="M 40.5,25.5 C 40.8333,25.5 41.1667,25.5 41.5,25.5C 42.1667,26.1667 42.8333,26.8333 43.5,27.5C 43.1667,27.5 42.8333,27.5 42.5,27.5C 41.5084,27.6716 40.8417,27.3382 40.5,26.5C 40.5,26.1667 40.5,25.8333 40.5,25.5 Z"/></g>
<g><path style="opacity:0.561" fill="#8F19E7" d="M 20.5,22.5 C 20.8333,22.5 21.1667,22.5 21.5,22.5C 21.5,22.8333 21.5,23.1667 21.5,23.5C 21.5,24.1667 21.5,24.8333 21.5,25.5C 21.5,26.1667 21.8333,26.5 22.5,26.5C 22.8333,27.1667 23.1667,27.8333 23.5,28.5C 21.8333,28.5 20.1667,28.5 18.5,28.5C 18.5,26.8333 18.5,25.1667 18.5,23.5C 18.8333,23.5 19.1667,23.5 19.5,23.5C 19.8333,27.5 20.1667,27.5 20.5,23.5C 20.5,23.1667 20.5,22.8333 20.5,22.5 Z"/></g>
<g><path style="opacity:0.863" fill="#8F19E7" d="M 24.5,26.5 C 25.1667,26.8333 25.8333,27.1667 26.5,27.5C 26.5,27.8333 26.5,28.1667 26.5,28.5C 25.8333,28.5 25.1667,28.5 24.5,28.5C 24.5,27.8333 24.5,27.1667 24.5,26.5 Z"/></g>
<g><path style="opacity:0.463" fill="#8F19E7" d="M 29.5,24.5 C 29.8333,24.5 30.1667,24.5 30.5,24.5C 30.1307,26.9935 30.7973,27.6602 32.5,26.5C 32.8333,26.5 33.1667,26.5 33.5,26.5C 33.5,26.8333 33.5,27.1667 33.5,27.5C 31.7163,28.7199 30.0496,28.7199 28.5,27.5C 29.3382,27.1583 29.6716,26.4916 29.5,25.5C 29.5,25.1667 29.5,24.8333 29.5,24.5 Z"/></g>
<g><path style="opacity:0.435" fill="#8F19E7" d="M 6.5,27.5 C 6.83333,27.5 7.16667,27.5 7.5,27.5C 8.33825,27.8417 8.67158,28.5084 8.5,29.5C 7.83333,29.5 7.5,29.8333 7.5,30.5C 6.59603,29.791 6.26269,28.791 6.5,27.5 Z"/></g>
<g><path style="opacity:0.484" fill="#8F19E7" d="M 47.5,20.5 C 47.5,23.5 47.5,26.5 47.5,29.5C 46.8333,29.5 46.1667,29.5 45.5,29.5C 46.2653,26.9039 46.5987,24.2372 46.5,21.5C 46.5,20.8333 46.8333,20.5 47.5,20.5 Z"/></g>
<g><path style="opacity:0.463" fill="#8F19E7" d="M 56.5,21.5 C 56.81,24.7131 56.4767,27.7131 55.5,30.5C 55.6716,29.5084 55.3382,28.8417 54.5,28.5C 55.1495,26.5648 55.4828,24.5648 55.5,22.5C 55.5,21.8333 55.8333,21.5 56.5,21.5 Z"/></g>
<g><path style="opacity:0.933" fill="#8F19E7" d="M 15.5,28.5 C 16.1667,28.5 16.8333,28.5 17.5,28.5C 17.5,29.1667 17.5,29.8333 17.5,30.5C 17.1667,30.5 16.8333,30.5 16.5,30.5C 15.6618,30.1583 15.3284,29.4916 15.5,28.5 Z"/></g>
<g><path style="opacity:0.569" fill="#8F19E7" d="M 16.5,30.5 C 16.8333,30.5 17.1667,30.5 17.5,30.5C 18.803,32.1423 20.1363,33.8089 21.5,35.5C 20.8333,35.5 20.5,35.8333 20.5,36.5C 20.1667,36.5 19.8333,36.5 19.5,36.5C 17.9752,34.7837 16.9752,32.7837 16.5,30.5 Z"/></g>
<g><path style="opacity:0.757" fill="#8F19E7" d="M 45.5,29.5 C 46.1667,29.5 46.8333,29.5 47.5,29.5C 47.1667,30.1667 46.8333,30.8333 46.5,31.5C 45.8333,31.5 45.5,31.1667 45.5,30.5C 45.5,30.1667 45.5,29.8333 45.5,29.5 Z"/></g>
<g><path style="opacity:0.882" fill="#8F19E7" d="M 54.5,28.5 C 55.3382,28.8417 55.6716,29.5084 55.5,30.5C 55.5,30.8333 55.5,31.1667 55.5,31.5C 54.8333,31.8333 54.1667,32.1667 53.5,32.5C 53.8333,31.1667 54.1667,29.8333 54.5,28.5 Z"/></g>
<g><path style="opacity:0.816" fill="#8F19E7" d="M 45.5,30.5 C 45.5,31.1667 45.8333,31.5 46.5,31.5C 46.0679,32.7095 45.4013,33.7095 44.5,34.5C 44.5,33.8333 44.5,33.1667 44.5,32.5C 44.3284,31.5084 44.6618,30.8417 45.5,30.5 Z"/></g>
<g><path style="opacity:0.788" fill="#8F19E7" d="M 8.5,29.5 C 8.83333,30.8333 9.16667,32.1667 9.5,33.5C 8.83333,33.5 8.16667,33.5 7.5,33.5C 7.5,32.5 7.5,31.5 7.5,30.5C 7.5,29.8333 7.83333,29.5 8.5,29.5 Z"/></g>
<g><path style="opacity:0.549" fill="#8F19E7" d="M 55.5,31.5 C 55.7373,32.791 55.404,33.791 54.5,34.5C 54.5,33.8333 54.1667,33.5 53.5,33.5C 53.5,33.1667 53.5,32.8333 53.5,32.5C 54.1667,32.1667 54.8333,31.8333 55.5,31.5 Z"/></g>
<g><path style="opacity:1" fill="#8F19E7" d="M 44.5,32.5 C 44.5,33.1667 44.5,33.8333 44.5,34.5C 44.1667,35.1667 43.8333,35.8333 43.5,36.5C 43.1667,36.5 42.8333,36.5 42.5,36.5C 42.5,35.8333 42.5,35.1667 42.5,34.5C 42.8333,33.5 43.5,32.8333 44.5,32.5 Z"/></g>
<g><path style="opacity:0.816" fill="#8F19E7" d="M 53.5,33.5 C 54.1667,33.5 54.5,33.8333 54.5,34.5C 54.6716,35.4916 54.3382,36.1583 53.5,36.5C 53.5,35.8333 53.1667,35.5 52.5,35.5C 52.3284,34.5084 52.6618,33.8417 53.5,33.5 Z"/></g>
<g><path style="opacity:0.792" fill="#8F19E7" d="M 7.5,33.5 C 8.16667,33.5 8.83333,33.5 9.5,33.5C 10.4013,34.2905 11.0679,35.2905 11.5,36.5C 10.6618,36.8417 10.3284,37.5084 10.5,38.5C 9.26315,37.0351 8.26315,35.3684 7.5,33.5 Z"/></g>
<g><path style="opacity:0.965" fill="#8F19E7" d="M 42.5,34.5 C 42.5,35.1667 42.5,35.8333 42.5,36.5C 42.5,36.8333 42.5,37.1667 42.5,37.5C 42.1667,37.5 41.8333,37.5 41.5,37.5C 41.5,36.8333 41.1667,36.5 40.5,36.5C 40.8333,35.5 41.5,34.8333 42.5,34.5 Z"/></g>
<g><path style="opacity:0.675" fill="#8F19E7" d="M 21.5,35.5 C 22.1667,35.5 22.5,35.8333 22.5,36.5C 21.8333,36.5 21.5,36.8333 21.5,37.5C 21.1667,37.5 20.8333,37.5 20.5,37.5C 20.5,37.1667 20.5,36.8333 20.5,36.5C 20.5,35.8333 20.8333,35.5 21.5,35.5 Z"/></g>
<g><path style="opacity:0.463" fill="#8F19E7" d="M 22.5,36.5 C 23.7095,36.9321 24.7095,37.5987 25.5,38.5C 24.5084,38.3284 23.8417,38.6618 23.5,39.5C 23.1667,39.5 22.8333,39.5 22.5,39.5C 22.5,38.8333 22.1667,38.5 21.5,38.5C 21.5,38.1667 21.5,37.8333 21.5,37.5C 21.5,36.8333 21.8333,36.5 22.5,36.5 Z"/></g>
<g><path style="opacity:0.91" fill="#8F19E7" d="M 40.5,36.5 C 41.1667,36.5 41.5,36.8333 41.5,37.5C 41.5,37.8333 41.5,38.1667 41.5,38.5C 40.5084,38.3284 39.8417,38.6618 39.5,39.5C 38.5,39.5 37.5,39.5 36.5,39.5C 36.5,39.1667 36.5,38.8333 36.5,38.5C 37.8333,37.8333 39.1667,37.1667 40.5,36.5 Z"/></g>
<g><path style="opacity:0.698" fill="#8F19E7" d="M 52.5,35.5 C 53.1667,35.5 53.5,35.8333 53.5,36.5C 53.6716,37.4916 53.3382,38.1583 52.5,38.5C 51.8333,38.5 51.5,38.1667 51.5,37.5C 51.3284,36.5084 51.6618,35.8417 52.5,35.5 Z"/></g>
<g><path style="opacity:0.906" fill="#8F19E7" d="M 11.5,36.5 C 11.8333,37.1667 12.1667,37.8333 12.5,38.5C 11.8333,38.5 11.1667,38.5 10.5,38.5C 10.3284,37.5084 10.6618,36.8417 11.5,36.5 Z"/></g>
<g><path style="opacity:0.594" fill="#8F19E7" d="M 18.5,37.5 C 18.5,38.1667 18.5,38.8333 18.5,39.5C 18.5,40.1667 18.8333,40.5 19.5,40.5C 19.9321,41.7095 20.5987,42.7095 21.5,43.5C 21.5,43.8333 21.5,44.1667 21.5,44.5C 21.1667,44.5 20.8333,44.5 20.5,44.5C 20.1667,44.5 19.8333,44.5 19.5,44.5C 19.5,43.8333 19.1667,43.5 18.5,43.5C 18.5,42.8333 18.1667,42.5 17.5,42.5C 17.5,41.8333 17.1667,41.5 16.5,41.5C 16.6596,39.847 17.3263,38.5137 18.5,37.5 Z"/></g>
<g><path style="opacity:1" fill="#8F19E7" d="M 19.5,36.5 C 19.5,37.1667 19.8333,37.5 20.5,37.5C 20.5,37.8333 20.5,38.1667 20.5,38.5C 19.8333,38.8333 19.1667,39.1667 18.5,39.5C 18.5,38.8333 18.5,38.1667 18.5,37.5C 18.5,36.8333 18.8333,36.5 19.5,36.5 Z"/></g>
<g><path style="opacity:0.89" fill="#8F19E7" d="M 43.5,36.5 C 44.1667,36.5 44.5,36.8333 44.5,37.5C 44.5,37.8333 44.5,38.1667 44.5,38.5C 44.1667,38.5 43.8333,38.5 43.5,38.5C 43.1667,38.5 42.8333,38.5 42.5,38.5C 42.5,38.1667 42.5,37.8333 42.5,37.5C 43.1667,37.5 43.5,37.1667 43.5,36.5 Z"/></g>
<g><path style="opacity:0.086" fill="#8F19E7" d="M 39.5,39.5 C 39.8417,38.6618 40.5084,38.3284 41.5,38.5C 41.5,39.1667 41.5,39.8333 41.5,40.5C 41.1667,40.5 40.8333,40.5 40.5,40.5C 40.5,39.8333 40.1667,39.5 39.5,39.5 Z"/></g>
<g><path style="opacity:0.843" fill="#8F19E7" d="M 51.5,37.5 C 51.5,38.1667 51.8333,38.5 52.5,38.5C 52.5,39.1667 52.1667,39.5 51.5,39.5C 50.8333,39.5 50.5,39.1667 50.5,38.5C 50.5,37.8333 50.8333,37.5 51.5,37.5 Z"/></g>
<g><path style="opacity:0.973" fill="#8F19E7" d="M 10.5,38.5 C 11.1667,38.5 11.8333,38.5 12.5,38.5C 13.5,38.8333 14.1667,39.5 14.5,40.5C 13.8333,40.8333 13.1667,41.1667 12.5,41.5C 11.8333,40.5 11.1667,39.5 10.5,38.5 Z"/></g>
<g><path style="opacity:0.447" fill="#8F19E7" d="M 20.5,38.5 C 20.8333,38.5 21.1667,38.5 21.5,38.5C 21.5,38.8333 21.5,39.1667 21.5,39.5C 21.5,39.8333 21.5,40.1667 21.5,40.5C 20.8333,40.5 20.1667,40.5 19.5,40.5C 18.8333,40.5 18.5,40.1667 18.5,39.5C 19.1667,39.1667 19.8333,38.8333 20.5,38.5 Z"/></g>
<g><path style="opacity:0.737" fill="#8F19E7" d="M 21.5,40.5 C 21.5,40.1667 21.5,39.8333 21.5,39.5C 21.8333,39.5 22.1667,39.5 22.5,39.5C 22.8333,39.5 23.1667,39.5 23.5,39.5C 24.3382,39.8417 24.6716,40.5084 24.5,41.5C 23.8333,41.5 23.1667,41.5 22.5,41.5C 22.5,40.8333 22.1667,40.5 21.5,40.5 Z"/></g>
<g><path style="opacity:0.984" fill="#8F19E7" d="M 26.5,38.5 C 27.4916,38.3284 28.1583,38.6618 28.5,39.5C 27.8333,39.5 27.5,39.8333 27.5,40.5C 27.1667,40.5 26.8333,40.5 26.5,40.5C 26.5,39.8333 26.5,39.1667 26.5,38.5 Z"/></g>
<g><path style="opacity:1" fill="#8F19E7" d="M 28.5,39.5 C 30.1667,39.5 31.8333,39.5 33.5,39.5C 34.4916,39.3284 35.1583,39.6618 35.5,40.5C 34.8333,40.5 34.1667,40.5 33.5,40.5C 32.1667,40.5 30.8333,40.5 29.5,40.5C 28.8333,40.5 28.5,40.8333 28.5,41.5C 28.1667,41.5 27.8333,41.5 27.5,41.5C 27.5,41.1667 27.5,40.8333 27.5,40.5C 27.5,39.8333 27.8333,39.5 28.5,39.5 Z"/></g>
<g><path style="opacity:0.941" fill="#8F19E7" d="M 33.5,39.5 C 34.209,38.596 35.209,38.2627 36.5,38.5C 36.5,38.8333 36.5,39.1667 36.5,39.5C 36.5,40.1667 36.1667,40.5 35.5,40.5C 35.1583,39.6618 34.4916,39.3284 33.5,39.5 Z"/></g>
<g><path style="opacity:0.714" fill="#8F19E7" d="M 41.5,38.5 C 41.8333,38.5 42.1667,38.5 42.5,38.5C 42.8333,38.5 43.1667,38.5 43.5,38.5C 43.5,38.8333 43.5,39.1667 43.5,39.5C 43.5,39.8333 43.5,40.1667 43.5,40.5C 42.8333,40.5 42.1667,40.5 41.5,40.5C 41.5,39.8333 41.5,39.1667 41.5,38.5 Z"/></g>
<g><path style="opacity:0.694" fill="#8F19E7" d="M 44.5,37.5 C 45.4345,38.5676 45.7678,39.901 45.5,41.5C 45.1667,41.5 44.8333,41.5 44.5,41.5C 44.5,40.8333 44.1667,40.5 43.5,40.5C 43.5,40.1667 43.5,39.8333 43.5,39.5C 44.1667,39.5 44.5,39.1667 44.5,38.5C 44.5,38.1667 44.5,37.8333 44.5,37.5 Z"/></g>
<g><path style="opacity:0.894" fill="#8F19E7" d="M 50.5,38.5 C 50.5,39.1667 50.8333,39.5 51.5,39.5C 51.1667,40.1667 50.8333,40.8333 50.5,41.5C 49.5084,41.6716 48.8417,41.3382 48.5,40.5C 48.8333,39.5 49.5,38.8333 50.5,38.5 Z"/></g>
<g><path style="opacity:0.984" fill="#8F19E7" d="M 19.5,40.5 C 20.1667,40.5 20.8333,40.5 21.5,40.5C 22.1667,40.5 22.5,40.8333 22.5,41.5C 21.6618,41.8417 21.3284,42.5084 21.5,43.5C 20.5987,42.7095 19.9321,41.7095 19.5,40.5 Z"/></g>
<g><path style="opacity:0.769" fill="#8F19E7" d="M 23.5,39.5 C 23.8417,38.6618 24.5084,38.3284 25.5,38.5C 25.8333,38.5 26.1667,38.5 26.5,38.5C 26.5,39.1667 26.5,39.8333 26.5,40.5C 25.8333,40.8333 25.1667,41.1667 24.5,41.5C 24.6716,40.5084 24.3382,39.8417 23.5,39.5 Z"/></g>
<g><path style="opacity:0.6" fill="#8F19E7" d="M 29.5,40.5 C 30.8333,40.5 32.1667,40.5 33.5,40.5C 33.5,40.8333 33.5,41.1667 33.5,41.5C 33.6716,42.4916 33.3382,43.1583 32.5,43.5C 32.1667,40.8333 31.8333,40.8333 31.5,43.5C 30.5987,42.7095 29.9321,41.7095 29.5,40.5 Z"/></g>
<g><path style="opacity:0.839" fill="#8F19E7" d="M 36.5,39.5 C 37.5,39.5 38.5,39.5 39.5,39.5C 40.1667,39.5 40.5,39.8333 40.5,40.5C 39.8333,40.5 39.1667,40.5 38.5,40.5C 37.6618,40.8417 37.3284,41.5084 37.5,42.5C 36.8333,43.1667 36.1667,43.8333 35.5,44.5C 35.6716,43.5084 35.3382,42.8417 34.5,42.5C 34.5,41.8333 34.1667,41.5 33.5,41.5C 33.5,41.1667 33.5,40.8333 33.5,40.5C 34.1667,40.5 34.8333,40.5 35.5,40.5C 36.1667,40.5 36.5,40.1667 36.5,39.5 Z"/></g>
<g><path style="opacity:0.796" fill="#8F19E7" d="M 14.5,40.5 C 15.1667,40.5 15.5,40.8333 15.5,41.5C 14.8333,41.5 14.5,41.8333 14.5,42.5C 13.5084,42.6716 12.8417,42.3382 12.5,41.5C 13.1667,41.1667 13.8333,40.8333 14.5,40.5 Z"/></g>
<g><path style="opacity:1" fill="#8F19E7" d="M 26.5,40.5 C 26.5,40.8333 26.5,41.1667 26.5,41.5C 26.1583,42.3382 25.4916,42.6716 24.5,42.5C 24.5,42.1667 24.5,41.8333 24.5,41.5C 25.1667,41.1667 25.8333,40.8333 26.5,40.5 Z"/></g>
<g><path style="opacity:0.804" fill="#252d34" d="M 38.5,40.5 C 39.1667,40.5 39.8333,40.5 40.5,40.5C 40.5,41.1667 40.5,41.8333 40.5,42.5C 40.5,43.1667 40.5,43.8333 40.5,44.5C 40.1667,44.5 39.8333,44.5 39.5,44.5C 39.5,44.1667 39.5,43.8333 39.5,43.5C 38.8902,42.609 38.5569,41.609 38.5,40.5 Z"/></g>
<g><path style="opacity:0.992" fill="#22282e" d="M 41.5,40.5 C 42.1667,40.5 42.8333,40.5 43.5,40.5C 44.1667,40.5 44.5,40.8333 44.5,41.5C 44.8333,41.5 45.1667,41.5 45.5,41.5C 45.5,41.8333 45.5,42.1667 45.5,42.5C 45.1667,42.5 44.8333,42.5 44.5,42.5C 43.8333,42.5 43.5,42.8333 43.5,43.5C 43.1667,43.5 42.8333,43.5 42.5,43.5C 41.8333,43.5 41.5,43.1667 41.5,42.5C 41.5,41.8333 41.5,41.1667 41.5,40.5 Z"/></g>
<g><path style="opacity:0.937" fill="#8F19E7" d="M 48.5,40.5 C 48.8417,41.3382 49.5084,41.6716 50.5,41.5C 50.1583,42.3382 49.4916,42.6716 48.5,42.5C 47.8333,42.5 47.5,42.1667 47.5,41.5C 47.5,40.8333 47.8333,40.5 48.5,40.5 Z"/></g>
<g><path style="opacity:0.776" fill="#8F19E7" d="M 15.5,41.5 C 15.8333,41.5 16.1667,41.5 16.5,41.5C 17.1667,41.5 17.5,41.8333 17.5,42.5C 17.5,42.8333 17.5,43.1667 17.5,43.5C 16.8333,43.5 16.5,43.8333 16.5,44.5C 15.5,44.1667 14.8333,43.5 14.5,42.5C 14.5,41.8333 14.8333,41.5 15.5,41.5 Z"/></g>
<g><path style="opacity:0.416" fill="#8F19E7" d="M 22.5,41.5 C 23.1667,41.5 23.8333,41.5 24.5,41.5C 24.5,41.8333 24.5,42.1667 24.5,42.5C 23.8333,42.5 23.5,42.8333 23.5,43.5C 22.6618,43.1583 22.3284,42.4916 22.5,41.5 Z"/></g>
<g><path style="opacity:0.451" fill="#404b51" d="M 26.5,41.5 C 26.8333,41.5 27.1667,41.5 27.5,41.5C 27.4431,42.609 27.1098,43.609 26.5,44.5C 26.5,44.8333 26.5,45.1667 26.5,45.5C 26.1667,45.5 25.8333,45.5 25.5,45.5C 25.5,44.1667 24.8333,43.5 23.5,43.5C 23.5,42.8333 23.8333,42.5 24.5,42.5C 25.4916,42.6716 26.1583,42.3382 26.5,41.5 Z"/></g>
<g><path style="opacity:0.588" fill="#8F19E7" d="M 29.5,40.5 C 29.9321,41.7095 30.5987,42.7095 31.5,43.5C 31.5,43.8333 31.5,44.1667 31.5,44.5C 31.5,45.1667 31.5,45.8333 31.5,46.5C 30.8333,46.5 30.5,46.1667 30.5,45.5C 30.1667,44.8333 29.8333,44.1667 29.5,43.5C 29.5,42.8333 29.1667,42.5 28.5,42.5C 28.5,42.1667 28.5,41.8333 28.5,41.5C 28.5,40.8333 28.8333,40.5 29.5,40.5 Z"/></g>
<g><path style="opacity:0.941" fill="#8F19E7" d="M 47.5,41.5 C 47.5,42.1667 47.8333,42.5 48.5,42.5C 48.1667,43.5 47.5,44.1667 46.5,44.5C 46.5,43.8333 46.5,43.1667 46.5,42.5C 46.5,41.8333 46.8333,41.5 47.5,41.5 Z"/></g>
<g><path style="opacity:1" fill="#8F19E7" d="M 22.5,41.5 C 22.3284,42.4916 22.6618,43.1583 23.5,43.5C 24.8333,43.5 25.5,44.1667 25.5,45.5C 25.1667,45.5 24.8333,45.5 24.5,45.5C 24.1583,44.6618 23.4916,44.3284 22.5,44.5C 22.1667,44.5 21.8333,44.5 21.5,44.5C 21.5,44.1667 21.5,43.8333 21.5,43.5C 21.3284,42.5084 21.6618,41.8417 22.5,41.5 Z"/></g>
<g><path style="opacity:0.996" fill="#8F19E7" d="M 27.5,41.5 C 27.8333,41.5 28.1667,41.5 28.5,41.5C 28.5,41.8333 28.5,42.1667 28.5,42.5C 28.5,42.8333 28.5,43.1667 28.5,43.5C 28.5,43.8333 28.5,44.1667 28.5,44.5C 27.8333,44.5 27.1667,44.5 26.5,44.5C 27.1098,43.609 27.4431,42.609 27.5,41.5 Z"/></g>
<g><path style="opacity:0.502" fill="#8F19E7" d="M 33.5,41.5 C 34.1667,41.5 34.5,41.8333 34.5,42.5C 34.5,43.1667 34.5,43.8333 34.5,44.5C 34.5,45.1667 34.1667,45.5 33.5,45.5C 33.5,44.8333 33.1667,44.5 32.5,44.5C 32.5,44.1667 32.5,43.8333 32.5,43.5C 33.3382,43.1583 33.6716,42.4916 33.5,41.5 Z"/></g>
<g><path style="opacity:0.627" fill="#8F19E7" d="M 37.5,43.5 C 38.1667,43.5 38.8333,43.5 39.5,43.5C 39.5,43.8333 39.5,44.1667 39.5,44.5C 39.5,44.8333 39.5,45.1667 39.5,45.5C 39.1667,45.5 38.8333,45.5 38.5,45.5C 38.1667,44.8333 37.8333,44.1667 37.5,43.5 Z"/></g>
<g><path style="opacity:0.945" fill="#8F19E7" d="M 40.5,42.5 C 40.8333,42.5 41.1667,42.5 41.5,42.5C 41.5,43.1667 41.8333,43.5 42.5,43.5C 42.5,44.1667 42.8333,44.5 43.5,44.5C 43.1583,45.3382 42.4916,45.6716 41.5,45.5C 41.5,44.8333 41.1667,44.5 40.5,44.5C 40.5,43.8333 40.5,43.1667 40.5,42.5 Z"/></g>
<g><path style="opacity:0.992" fill="#8F19E7" d="M 44.5,42.5 C 44.8333,43.8333 45.1667,43.8333 45.5,42.5C 45.8333,42.5 46.1667,42.5 46.5,42.5C 46.5,43.1667 46.5,43.8333 46.5,44.5C 46.5,45.1667 46.1667,45.5 45.5,45.5C 45.1583,44.6618 44.4916,44.3284 43.5,44.5C 43.5,44.1667 43.5,43.8333 43.5,43.5C 43.5,42.8333 43.8333,42.5 44.5,42.5 Z"/></g>
<g><path style="opacity:0.957" fill="#8F19E7" d="M 17.5,43.5 C 17.8333,43.5 18.1667,43.5 18.5,43.5C 19.1667,43.5 19.5,43.8333 19.5,44.5C 19.8333,44.5 20.1667,44.5 20.5,44.5C 20.8417,45.3382 21.5084,45.6716 22.5,45.5C 22.5,45.8333 22.5,46.1667 22.5,46.5C 21.8333,46.5 21.5,46.8333 21.5,47.5C 19.326,47.2503 17.6594,46.2503 16.5,44.5C 16.5,43.8333 16.8333,43.5 17.5,43.5 Z"/></g>
<g><path style="opacity:0.29" fill="#8F19E7" d="M 22.5,44.5 C 23.4916,44.3284 24.1583,44.6618 24.5,45.5C 23.8333,45.5 23.5,45.8333 23.5,46.5C 23.1667,46.5 22.8333,46.5 22.5,46.5C 22.5,46.1667 22.5,45.8333 22.5,45.5C 22.5,45.1667 22.5,44.8333 22.5,44.5 Z"/></g>
<g><path style="opacity:0.525" fill="#8F19E7" d="M 28.5,43.5 C 28.8333,43.5 29.1667,43.5 29.5,43.5C 29.8333,44.1667 30.1667,44.8333 30.5,45.5C 30.1667,45.5 29.8333,45.5 29.5,45.5C 28.8333,45.5 28.5,45.1667 28.5,44.5C 28.5,44.1667 28.5,43.8333 28.5,43.5 Z"/></g>
<g><path style="opacity:0.882" fill="#8F19E7" d="M 37.5,42.5 C 37.5,42.8333 37.5,43.1667 37.5,43.5C 37.8333,44.1667 38.1667,44.8333 38.5,45.5C 38.1667,45.5 37.8333,45.5 37.5,45.5C 36.8333,45.5 36.1667,45.5 35.5,45.5C 35.5,45.1667 35.5,44.8333 35.5,44.5C 36.1667,43.8333 36.8333,43.1667 37.5,42.5 Z"/></g>
<g><path style="opacity:0.745" fill="#8F19E7" d="M 26.5,45.5 C 26.5,45.1667 26.5,44.8333 26.5,44.5C 27.1667,44.5 27.8333,44.5 28.5,44.5C 28.5,45.1667 28.8333,45.5 29.5,45.5C 29.1583,46.3382 28.4916,46.6716 27.5,46.5C 27.5,45.8333 27.1667,45.5 26.5,45.5 Z"/></g>
<g><path style="opacity:0.561" fill="#8F19E7" d="M 31.5,44.5 C 31.8333,44.5 32.1667,44.5 32.5,44.5C 33.1667,44.5 33.5,44.8333 33.5,45.5C 32.8333,45.8333 32.1667,46.1667 31.5,46.5C 31.5,45.8333 31.5,45.1667 31.5,44.5 Z"/></g>
<g><path style="opacity:0.549" fill="#8F19E7" d="M 34.5,44.5 C 34.8333,44.5 35.1667,44.5 35.5,44.5C 35.5,44.8333 35.5,45.1667 35.5,45.5C 35.5,45.8333 35.5,46.1667 35.5,46.5C 34.5084,46.6716 33.8417,46.3382 33.5,45.5C 34.1667,45.5 34.5,45.1667 34.5,44.5 Z"/></g>
<g><path style="opacity:0.006" fill="#8F19E7" d="M 35.5,46.5 C 35.5,46.1667 35.5,45.8333 35.5,45.5C 36.1667,45.5 36.8333,45.5 37.5,45.5C 37.5,45.8333 37.5,46.1667 37.5,46.5C 37.5,46.8333 37.5,47.1667 37.5,47.5C 37.1667,47.5 36.8333,47.5 36.5,47.5C 36.5,46.8333 36.1667,46.5 35.5,46.5 Z"/></g>
<g><path style="opacity:0.91" fill="#8F19E7" d="M 43.5,44.5 C 44.4916,44.3284 45.1583,44.6618 45.5,45.5C 45.1583,46.3382 44.4916,46.6716 43.5,46.5C 42.5084,46.6716 41.8417,46.3382 41.5,45.5C 42.4916,45.6716 43.1583,45.3382 43.5,44.5 Z"/></g>
<g><path style="opacity:0.88" fill="#8F19E7" d="M 22.5,46.5 C 22.8333,46.5 23.1667,46.5 23.5,46.5C 23.8333,46.5 24.1667,46.5 24.5,46.5C 24.5,46.8333 24.5,47.1667 24.5,47.5C 24.5,47.8333 24.5,48.1667 24.5,48.5C 23.209,48.7373 22.209,48.404 21.5,47.5C 21.5,46.8333 21.8333,46.5 22.5,46.5 Z"/></g>
<g><path style="opacity:0.576" fill="#8F19E7" d="M 24.5,45.5 C 24.8333,45.5 25.1667,45.5 25.5,45.5C 25.8417,46.3382 26.5084,46.6716 27.5,46.5C 27.5,46.8333 27.5,47.1667 27.5,47.5C 26.5,47.5 25.5,47.5 24.5,47.5C 24.5,47.1667 24.5,46.8333 24.5,46.5C 24.5,46.1667 24.5,45.8333 24.5,45.5 Z"/></g>
<g><path style="opacity:0.976" fill="#8F19E7" d="M 37.5,47.5 C 37.5,47.1667 37.5,46.8333 37.5,46.5C 38.1667,46.5 38.8333,46.5 39.5,46.5C 39.5,47.1667 39.5,47.8333 39.5,48.5C 39.1667,48.5 38.8333,48.5 38.5,48.5C 38.5,47.8333 38.1667,47.5 37.5,47.5 Z"/></g>
<g><path style="opacity:1" fill="#8F19E7" d="M 39.5,45.5 C 40.1667,45.5 40.8333,45.5 41.5,45.5C 41.8417,46.3382 42.5084,46.6716 43.5,46.5C 42.4863,47.6737 41.153,48.3404 39.5,48.5C 39.5,47.8333 39.5,47.1667 39.5,46.5C 39.5,46.1667 39.5,45.8333 39.5,45.5 Z"/></g>
<g><path style="opacity:0.925" fill="#2c343c" d="M 32.5,47.5 C 33.8333,47.5 35.1667,47.5 36.5,47.5C 36.8333,47.5 37.1667,47.5 37.5,47.5C 38.1667,47.5 38.5,47.8333 38.5,48.5C 38.5,48.8333 38.5,49.1667 38.5,49.5C 36.8333,49.5 35.1667,49.5 33.5,49.5C 33.1667,48.8333 32.8333,48.1667 32.5,47.5 Z"/></g>
<g><path style="opacity:0.506" fill="#8F19E7" d="M 24.5,47.5 C 25.5,47.5 26.5,47.5 27.5,47.5C 27.8333,48.1667 28.1667,48.8333 28.5,49.5C 27.1667,49.5 25.8333,49.5 24.5,49.5C 24.5,49.1667 24.5,48.8333 24.5,48.5C 24.5,48.1667 24.5,47.8333 24.5,47.5 Z"/></g>
<g><path style="opacity:0.992" fill="#8F19E7" d="M 27.5,47.5 C 29.1667,47.5 30.8333,47.5 32.5,47.5C 32.8333,48.1667 33.1667,48.8333 33.5,49.5C 31.8333,49.5 30.1667,49.5 28.5,49.5C 28.1667,48.8333 27.8333,48.1667 27.5,47.5 Z"/></g>
</svg>
